<?xml version="1.0" standalone="no"?><svg xmlns="http://www.w3.org/2000/svg" viewBox="0 0 1440 320"><path fill="#5F4DEE" fill-opacity="1" d="M0,256L30,266.7C60,277,120,299,180,298.7C240,299,300,277,360,266.7C420,256,480,256,540,224C600,192,660,128,720,138.7C780,149,840,235,900,256C960,277,1020,235,1080,186.7C1140,139,1200,85,1260,90.7C1320,96,1380,160,1410,192L1440,224L1440,0L1410,0C1380,0,1320,0,1260,0C1200,0,1140,0,1080,0C1020,0,960,0,900,0C840,0,780,0,720,0C660,0,600,0,540,0C480,0,420,0,360,0C300,0,240,0,180,0C120,0,60,0,30,0L0,0Z"></path></svg>